<svg width="57" height="69" viewBox="0 0 57 69" fill="none" xmlns="http://www.w3.org/2000/svg">
<path d="M56.7061 32.2318C56.7061 49.7947 45.9029 68.4315 28.6062 68.4315C11.3095 68.4315 0.630117 49.7947 0.630117 32.2318C-1.1655 14.4136 9.29527 0.431457 28.6062 0.431458C47.9171 0.431458 57.8851 13.3175 56.7061 32.2318Z" fill="#BF4265"/>
<path d="M54.1833 33.8723C54.1833 49.4997 44.4226 66.0828 28.7951 66.0828C13.1676 66.0828 3.51881 49.4997 3.51881 33.8723C1.89648 18.0175 11.3478 5.5762 28.7951 5.5762C46.2425 5.5762 55.2485 17.0423 54.1833 33.8723Z" fill="#303030"/>
<path d="M6.69464 35.7736L50.9841 34.8788" stroke="#F5F5F5" stroke-width="4" stroke-linecap="round"/>
<circle cx="28.8393" cy="20.563" r="8.56579" stroke="#F5F5F5" stroke-width="3"/>
</svg>
